<svg xmlns="http://www.w3.org/2000/svg" width="50.12" height="42.61" viewBox="0 0 50.12 42.61"><defs><style>.cls-1{fill:none;stroke:#fff;stroke-linecap:round;stroke-miterlimit:10;stroke-width:2px;}</style></defs><title>Asset 1</title><g id="Layer_2" data-name="Layer 2"><g id="Layer_1-2" data-name="Layer 1"><path class="cls-1" d="M25,29.14c-.14-1.61-.09-2.74-.09-4.21.73-.39,2-2.83,2.26-4.89.58-.05,1.48-.61,1.75-2.82a2.07,2.07,0,0,0-.77-2.06c.93-2.81,2.87-11.5-3.59-12.4C23.88,1.59,22.18,1,20,1c-8.86.16-9.92,6.69-8,14.16a2,2,0,0,0-.77,2.06C11.48,19.43,12.39,20,13,20c.22,2.06,1.58,4.5,2.31,4.89a40.22,40.22,0,0,1-.09,4.21C13.43,33.85,1.61,32.53,1.06,41.61h38C38.52,32.53,26.75,33.85,25,29.14Z"/><path class="cls-1" d="M36.48,36.2H49.06c-.46-7.65-10.37-6.54-11.85-10.5-.12-1.36-.07-2.31-.07-3.55.62-.32,1.72-2.38,1.9-4.12.48,0,1.25-.51,1.47-2.37a1.75,1.75,0,0,0-.65-1.74c.79-2.37,2.42-9.68-3-10.44C36.28,2.5,34.85,2,33,2a8.22,8.22,0,0,0-5.23,1.59"/></g></g></svg>
