<svg xmlns="http://www.w3.org/2000/svg" viewBox="0 0 40.12 42.61"><defs><style>.cls-1{fill:none;stroke:#fff;stroke-linecap:round;stroke-miterlimit:10;stroke-width:2px;}</style></defs><title>profil</title><g id="Layer_1" data-name="Layer 1"><g id="Layer_2-2" data-name="Layer 2"><g id="Layer_1-2" data-name="Layer 1-2"><path class="cls-1" d="M25,29.14c-.14-1.61-.09-2.74-.09-4.21.73-.39,2-2.83,2.26-4.89.58-.05,1.48-.61,1.75-2.82a2.07,2.07,0,0,0-.77-2.06c.93-2.81,2.87-11.5-3.59-12.4C23.88,1.59,22.18,1,20,1c-8.86.16-9.92,6.69-8,14.16a2,2,0,0,0-.77,2.06C11.48,19.43,12.39,20,13,20c.22,2.06,1.58,4.5,2.31,4.89a37,37,0,0,1-.09,4.21C13.43,33.85,1.61,32.53,1.06,41.61h38C38.52,32.53,26.75,33.85,25,29.14Z"/><path class="cls-1" d="M36.48,36.2"/></g></g></g></svg>
