<svg xmlns="http://www.w3.org/2000/svg" width="511.93" height="384.02" viewBox="0 0 511.93 384.02"><defs><style>.cls-1{fill:#fff;}</style></defs><title>Asset 2</title><g id="Layer_2" data-name="Layer 2"><g id="Layer_1-2" data-name="Layer 1"><path class="cls-1" d="M508.61,84.8c0-45-33.1-81.2-74-81.2C379.21,1,322.71,0,265,0H247c-57.6,0-114.2,1-169.6,3.6C36.61,3.6,3.51,40,3.51,85,1,120.6-.09,156.2,0,191.8q-.15,53.4,3.4,106.9c0,45,33.1,81.5,73.9,81.5,58.2,2.7,117.9,3.9,178.6,3.8q91.2.3,178.6-3.8c40.9,0,74-36.5,74-81.5,2.4-35.7,3.5-71.3,3.4-107Q512.21,138.3,508.61,84.8ZM207,289.9V93.4l145,98.2Z"/></g></g></svg>
